Coordinates
version=1
nRows=14
nColumns=24
inDegrees=yes

Units are S.I. units (second, meters, Newtons, ...)
Angles are in degrees.

endheader
time	pelvis_tilt	pelvis_list	pelvis_rotation	pelvis_tx	pelvis_ty	pelvis_tz	hip_flexion_r	hip_adduction_r	hip_rotation_r	knee_angle_r	ankle_angle_r	subtalar_angle_r	mtp_angle_r	hip_flexion_l	hip_adduction_l	hip_rotation_l	knee_angle_l	ankle_angle_l	subtalar_angle_l	mtp_angle_l	lumbar_extension	lumbar_bending	lumbar_rotation
      1.28800000	     -0.58215614	     -1.69037351	     -5.80411827	     -0.00732223	      0.95416604	      0.34980417	    -18.64800014	      2.38853659	     -4.18089906	    -10.32266755	     14.11948293	     10.43651996	     12.28251753	     27.45243690	     -1.89466368	     -6.61162041	     -0.35048123	      5.35200957	     -7.09941905	     -0.26843474	     -1.92883728	      4.17355781	     10.47891510
      1.29216667	     -0.65787648	     -1.54410921	     -5.90271384	     -0.00124861	      0.95346471	      0.34951504	    -18.78273863	      2.13588521	     -4.16782168	    -10.56935986	     13.90313856	     10.36347919	     12.30181148	     27.54960595	     -1.74829324	     -6.55552655	     -0.80287305	      5.18681679	     -7.43625217	     -0.26961078	     -1.77337022	      3.99620469	     10.58963610
      1.29633333	     -0.74335933	     -1.41690443	     -5.97695096	      0.00485881	      0.95277469	      0.34917889	    -18.90305478	      1.90757542	     -4.19862837	    -10.82148912	     13.65177094	     10.38811727	     12.37483301	     27.65272118	     -1.60620238	     -6.38019654	     -1.27540502	      4.91876779	     -7.97980866	     -0.26153009	     -1.59242086	      3.85589814	     10.74070570
      1.30050000	     -0.80356213	     -1.24396436	     -6.05563807	      0.01104514	      0.95215193	      0.34884804	    -19.03190227	      1.62429063	     -4.24098530	    -11.10932613	     13.38240955	     10.33219717	     12.42749478	     27.73350859	     -1.42293653	     -6.28915041	     -1.79354206	      4.72382643	     -8.33580834	     -0.25405665	     -1.44055216	      3.63903524	     10.79961600
      1.30466667	     -0.89126270	     -1.09532115	     -6.11358008	      0.01726230	      0.95152655	      0.34847538	    -19.13314209	      1.37347369	     -4.29950497	    -11.38739305	     13.07201158	     10.39227896	     12.58469699	     27.82679630	     -1.24726728	     -6.05132555	     -2.29345489	      4.33729247	     -9.00666903	     -0.22715238	     -1.23919885	      3.47700496	     10.93217713
      1.30883333	     -0.98190366	     -0.91746076	     -6.17041842	      0.02354700	      0.95094290	      0.34809133	    -19.21522257	      1.09087669	     -4.35682824	    -11.69637802	     12.73687094	     10.37924103	     12.77892016	     27.92728772	     -1.04372025	     -5.86753700	     -2.82590582	      3.96795439	     -9.55727201	     -0.18991517	     -1.03401622	      3.26959501	     11.01425924
      1.31300000	     -1.07478260	     -0.73661189	     -6.21978182	      0.02987081	      0.95039599	      0.34769508	    -19.28650528	      0.80807747	     -4.40079346	    -12.01577600	     12.36481443	     10.32877936	     12.99550533	     28.03127280	     -0.83391852	     -5.68526157	     -3.37737265	      3.57223427	    -10.09775714	     -0.14544258	     -0.82011659	      3.05598156	     11.09310889
      1.31716667	     -1.09511892	     -0.49075049	     -6.27158185	      0.03630237	      0.94997883	      0.34725793	    -19.41479654	      0.42882503	     -4.56509571	    -12.35704749	     11.88016696	     10.47097064	     15.75207090	     28.02375718	     -0.54391353	     -5.51240484	     -3.87285841	      3.10970440	    -10.74715458	      0.47542124	     -0.68601892	      2.76103900	     11.06521855
      1.32133333	     -1.25906534	     -0.33053106	     -6.29296926	      0.04266723	      0.94942252	      0.34682432	    -19.38427846	      0.19027792	     -4.55346795	    -12.72544811	     11.48395764	     10.23557511	     15.84866876	     28.23261444	     -0.35200030	     -5.32954242	     -4.50448026	      2.67310434	    -11.19610707	      0.48976310	     -0.38260680	      2.58941824	     11.21760395
      1.32550000	     -1.36869759	     -0.13077325	     -6.31863168	      0.04910952	      0.94899512	      0.34637917	    -19.39627499	     -0.10447875	     -4.58106423	    -13.11049352	     11.00571077	     10.08771015	     16.01673846	     28.34499860	     -0.10849798	     -5.12865532	     -5.06891256	      2.15494118	    -11.78823947	      0.51904850	     -0.13232770	      2.35084423	     11.29232938
      1.32966667	     -1.41046523	      0.13597392	     -6.33790580	      0.05564959	      0.94868992	      0.34587625	    -19.46136768	     -0.49338445	     -4.72462165	    -13.51359860	     10.42463337	     10.13377749	     18.10879730	     28.36153545	      0.21881134	     -4.96048764	     -5.58936113	      1.60834258	    -12.41877017	      0.94724920	      0.03819858	      2.03449344	     11.27707096
      1.33383333	     -1.59814534	      0.32436572	     -6.33194219	      0.06212557	      0.94825854	      0.34537969	    -19.35459624	     -0.75325940	     -4.70704472	    -13.95718798	      9.90596803	      9.87231386	     18.20493987	     28.59477998	      0.45000901	     -4.81465561	     -6.24183037	      1.10164461	    -12.81139425	      0.95838669	      0.39003007	      1.82681671	     11.37348105
      1.33800000	     -1.72705830	      0.54991101	     -6.32265211	      0.06866091	      0.94795918	      0.34485354	    -19.29387725	     -1.06390515	     -4.72469080	    -14.41748048	      9.29790936	      9.67532773	     18.36112847	     28.73621604	      0.73335344	     -4.65575889	     -6.84106895	      0.55353852	    -13.30930950	      0.97872846	      0.67232235	      1.56750945	     11.41960688
      1.34216667	     -1.85699612	      0.78846922	     -6.30474710	      0.07520573	      0.94770626	      0.34428975	    -19.19267173	     -1.39183550	     -4.76794321	    -14.94635981	      8.66098711	      9.49507153	     18.60765121	     28.87485611	      1.03633187	     -4.49609555	     -7.43605204	      0.01482235	    -13.81443960	      1.01233813	      0.94846343	      1.29417888	     11.44786179
